<svg width="24" height="25" viewBox="0 0 24 25" fill="none" xmlns="http://www.w3.org/2000/svg">
<path fill-rule="evenodd" clip-rule="evenodd" d="M17.25 2.75C17.25 2.33579 16.9142 2 16.5 2C16.0858 2 15.75 2.33579 15.75 2.75V3.5H8.25V2.75C8.25 2.33579 7.91421 2 7.5 2C7.08579 2 6.75 2.33579 6.75 2.75V3.5H4.5C3.67157 3.5 3 4.17157 3 5V8.75V20C3 20.8284 3.67157 21.5 4.5 21.5H19.5C20.3284 21.5 21 20.8284 21 20V8.75V5C21 4.17157 20.3284 3.5 19.5 3.5H17.25V2.75ZM19.5 5H17.25V5.75C17.25 6.16421 16.9142 6.5 16.5 6.5C16.0858 6.5 15.75 6.16421 15.75 5.75V5H8.25V5.75C8.25 6.16421 7.91421 6.5 7.5 6.5C7.08579 6.5 6.75 6.16421 6.75 5.75V5H4.5V8H19.5V5ZM4.5 9.5H19.5V20H4.5V9.5ZM7.875 12.5C7.875 12.0858 8.21079 11.75 8.625 11.75H11.25C11.5383 11.75 11.8011 11.9153 11.926 12.1751C12.0509 12.435 12.0158 12.7434 11.8357 12.9685L11.0055 14.0062C11.2487 14.1692 11.4584 14.3786 11.6221 14.6231C11.8282 14.9308 11.9551 15.2846 11.9916 15.6531C12.0281 16.0216 11.9731 16.3934 11.8315 16.7355C11.6899 17.0777 11.466 17.3796 11.1798 17.6144C10.8935 17.8493 10.5537 18.0099 10.1905 18.082C9.82725 18.154 9.45187 18.1354 9.09761 18.0276C8.74335 17.9198 8.42117 17.7262 8.15965 17.4641C7.86712 17.1708 7.86769 16.6959 8.16094 16.4034C8.45418 16.1109 8.92906 16.1114 9.2216 16.4047C9.30877 16.4921 9.41616 16.5566 9.53425 16.5925C9.65233 16.6284 9.77746 16.6347 9.89853 16.6107C10.0196 16.5866 10.1329 16.5331 10.2283 16.4548C10.3237 16.3765 10.3983 16.2759 10.4455 16.1618C10.4928 16.0478 10.5111 15.9239 10.4989 15.801C10.4867 15.6782 10.4444 15.5603 10.3758 15.4577C10.3071 15.3551 10.2142 15.2711 10.1052 15.2131C9.99629 15.155 9.87472 15.1248 9.75128 15.125C9.46275 15.1255 9.19951 14.9604 9.0743 14.7005C8.94909 14.4405 8.9841 14.1318 9.16435 13.9065L9.68953 13.25H8.625C8.21079 13.25 7.875 12.9142 7.875 12.5ZM15.75 12.5C15.75 12.2159 15.5895 11.9562 15.3355 11.8292C15.0814 11.7021 14.7773 11.7296 14.55 11.9L13.05 13.025C12.7187 13.2735 12.6515 13.7436 12.9 14.075C13.1486 14.4064 13.6187 14.4735 13.95 14.225L14.25 14V17.375C14.25 17.7892 14.5858 18.125 15 18.125C15.4143 18.125 15.75 17.7892 15.75 17.375V12.5Z" fill="#C3C3C3"/>
</svg>
