<svg width="29" height="28" viewBox="0 0 29 28" fill="none" xmlns="http://www.w3.org/2000/svg">
<path fill-rule="evenodd" clip-rule="evenodd" d="M14.5 4.375C9.18426 4.375 4.875 8.68426 4.875 14C4.875 19.3157 9.18426 23.625 14.5 23.625C19.8157 23.625 24.125 19.3157 24.125 14C24.125 8.68426 19.8157 4.375 14.5 4.375ZM3.125 14C3.125 7.71776 8.21776 2.625 14.5 2.625C20.7822 2.625 25.875 7.71776 25.875 14C25.875 20.2822 20.7822 25.375 14.5 25.375C8.21776 25.375 3.125 20.2822 3.125 14Z" fill="#202124"/>
<path d="M10.5625 13.125C11.2874 13.125 11.875 12.5374 11.875 11.8125C11.875 11.0876 11.2874 10.5 10.5625 10.5C9.83763 10.5 9.25 11.0876 9.25 11.8125C9.25 12.5374 9.83763 13.125 10.5625 13.125Z" fill="#202124"/>
<path d="M18.4375 13.125C19.1624 13.125 19.75 12.5374 19.75 11.8125C19.75 11.0876 19.1624 10.5 18.4375 10.5C17.7126 10.5 17.125 11.0876 17.125 11.8125C17.125 12.5374 17.7126 13.125 18.4375 13.125Z" fill="#202124"/>
<path fill-rule="evenodd" clip-rule="evenodd" d="M9.5106 15.8681C9.92854 15.6255 10.464 15.7677 10.7066 16.1856C11.0922 16.85 11.6456 17.4014 12.3113 17.7848C12.977 18.1681 13.7317 18.3698 14.4999 18.3698C15.268 18.3698 16.0227 18.1681 16.6884 17.7848C17.3541 17.4014 17.9075 16.85 18.2931 16.1856C18.5357 15.7677 19.0712 15.6255 19.4891 15.8681C19.9071 16.1107 20.0492 16.6462 19.8066 17.0642C19.2671 17.9936 18.493 18.7651 17.5617 19.3013C16.6303 19.8376 15.5745 20.1198 14.4999 20.1198C13.4252 20.1198 12.3694 19.8376 11.438 19.3013C10.5067 18.7651 9.73258 17.9936 9.19309 17.0642C8.9505 16.6462 9.09265 16.1107 9.5106 15.8681Z" fill="#202124"/>
</svg>
