<svg width="22" height="22" viewBox="0 0 22 22" fill="none" xmlns="http://www.w3.org/2000/svg">
<path fill-rule="evenodd" clip-rule="evenodd" d="M9.96875 3.4375C6.36164 3.4375 3.4375 6.36164 3.4375 9.96875C3.4375 13.5759 6.36164 16.5 9.96875 16.5C13.5759 16.5 16.5 13.5759 16.5 9.96875C16.5 6.36164 13.5759 3.4375 9.96875 3.4375ZM2.0625 9.96875C2.0625 5.60225 5.60225 2.0625 9.96875 2.0625C14.3353 2.0625 17.875 5.60225 17.875 9.96875C17.875 14.3353 14.3353 17.875 9.96875 17.875C5.60225 17.875 2.0625 14.3353 2.0625 9.96875Z" fill="#888B96"/>
<path fill-rule="evenodd" clip-rule="evenodd" d="M14.5874 14.5874C14.8558 14.3189 15.2911 14.3189 15.5596 14.5874L19.7362 18.7639C20.0047 19.0324 20.0047 19.4677 19.7362 19.7362C19.4677 20.0047 19.0324 20.0047 18.7639 19.7362L14.5874 15.5596C14.3189 15.2911 14.3189 14.8558 14.5874 14.5874Z" fill="#888B96"/>
</svg>
