<svg width="29" height="28" viewBox="0 0 29 28" fill="none" xmlns="http://www.w3.org/2000/svg">
<path fill-rule="evenodd" clip-rule="evenodd" d="M14.5 4.375C9.18426 4.375 4.875 8.68426 4.875 14C4.875 19.3157 9.18426 23.625 14.5 23.625C19.8157 23.625 24.125 19.3157 24.125 14C24.125 8.68426 19.8157 4.375 14.5 4.375ZM3.125 14C3.125 7.71776 8.21776 2.625 14.5 2.625C20.7822 2.625 25.875 7.71776 25.875 14C25.875 20.2822 20.7822 25.375 14.5 25.375C8.21776 25.375 3.125 20.2822 3.125 14Z" fill="#202124"/>
<path d="M10.5625 13.125C11.2874 13.125 11.875 12.5374 11.875 11.8125C11.875 11.0876 11.2874 10.5 10.5625 10.5C9.83763 10.5 9.25 11.0876 9.25 11.8125C9.25 12.5374 9.83763 13.125 10.5625 13.125Z" fill="#202124"/>
<path d="M18.4375 13.125C19.1624 13.125 19.75 12.5374 19.75 11.8125C19.75 11.0876 19.1624 10.5 18.4375 10.5C17.7126 10.5 17.125 11.0876 17.125 11.8125C17.125 12.5374 17.7126 13.125 18.4375 13.125Z" fill="#202124"/>
<path fill-rule="evenodd" clip-rule="evenodd" d="M9.51109 15.8684C9.92903 15.6258 10.4645 15.7679 10.7071 16.1859C11.0927 16.8503 11.6461 17.4017 12.3118 17.785C12.9775 18.1683 13.7322 18.3701 14.5003 18.3701C15.2685 18.3701 16.0232 18.1683 16.6889 17.785C17.3546 17.4017 17.908 16.8503 18.2936 16.1859C18.5362 15.7679 19.0716 15.6258 19.4896 15.8684C19.9075 16.111 20.0497 16.6465 19.8071 17.0644C19.2676 17.9938 18.4935 18.7653 17.5622 19.3016C16.6308 19.8378 15.575 20.1201 14.5003 20.1201C13.4257 20.1201 12.3698 19.8378 11.4385 19.3016C10.5072 18.7653 9.73307 17.9938 9.19358 17.0644C8.95099 16.6465 9.09314 16.111 9.51109 15.8684Z" fill="#202124"/>
</svg>
