<svg width="28" height="28" viewBox="0 0 28 28" fill="none" xmlns="http://www.w3.org/2000/svg">
<path fill-rule="evenodd" clip-rule="evenodd" d="M14 4.375C8.68426 4.375 4.375 8.68426 4.375 14C4.375 19.3157 8.68426 23.625 14 23.625C19.3157 23.625 23.625 19.3157 23.625 14C23.625 8.68426 19.3157 4.375 14 4.375ZM2.625 14C2.625 7.71776 7.71776 2.625 14 2.625C20.2822 2.625 25.375 7.71776 25.375 14C25.375 20.2822 20.2822 25.375 14 25.375C7.71776 25.375 2.625 20.2822 2.625 14Z" fill="#202124"/>
<path d="M10.0625 13.125C10.7874 13.125 11.375 12.5374 11.375 11.8125C11.375 11.0876 10.7874 10.5 10.0625 10.5C9.33763 10.5 8.75 11.0876 8.75 11.8125C8.75 12.5374 9.33763 13.125 10.0625 13.125Z" fill="#202124"/>
<path d="M17.9375 13.125C18.6624 13.125 19.25 12.5374 19.25 11.8125C19.25 11.0876 18.6624 10.5 17.9375 10.5C17.2126 10.5 16.625 11.0876 16.625 11.8125C16.625 12.5374 17.2126 13.125 17.9375 13.125Z" fill="#202124"/>
<path fill-rule="evenodd" clip-rule="evenodd" d="M9.01109 15.8684C9.42903 15.6258 9.9645 15.7679 10.2071 16.1859C10.5927 16.8503 11.1461 17.4017 11.8118 17.785C12.4775 18.1683 13.2322 18.3701 14.0003 18.3701C14.7685 18.3701 15.5232 18.1683 16.1889 17.785C16.8546 17.4017 17.408 16.8503 17.7936 16.1859C18.0362 15.7679 18.5716 15.6258 18.9896 15.8684C19.4075 16.111 19.5497 16.6465 19.3071 17.0644C18.7676 17.9938 17.9935 18.7653 17.0622 19.3016C16.1308 19.8378 15.075 20.1201 14.0003 20.1201C12.9257 20.1201 11.8698 19.8378 10.9385 19.3016C10.0072 18.7653 9.23307 17.9938 8.69358 17.0644C8.45099 16.6465 8.59314 16.111 9.01109 15.8684Z" fill="#202124"/>
</svg>
