<svg width="22" height="22" viewBox="0 0 22 22" fill="none" xmlns="http://www.w3.org/2000/svg">
<path fill-rule="evenodd" clip-rule="evenodd" d="M11 3.4375C6.82335 3.4375 3.4375 6.82335 3.4375 11C3.4375 15.1767 6.82335 18.5625 11 18.5625C15.1767 18.5625 18.5625 15.1767 18.5625 11C18.5625 6.82335 15.1767 3.4375 11 3.4375ZM2.0625 11C2.0625 6.06396 6.06396 2.0625 11 2.0625C15.936 2.0625 19.9375 6.06396 19.9375 11C19.9375 15.936 15.936 19.9375 11 19.9375C6.06396 19.9375 2.0625 15.936 2.0625 11Z" fill="#888B96"/>
<path d="M7.90625 10.3125C8.47579 10.3125 8.9375 9.85079 8.9375 9.28125C8.9375 8.71171 8.47579 8.25 7.90625 8.25C7.33671 8.25 6.875 8.71171 6.875 9.28125C6.875 9.85079 7.33671 10.3125 7.90625 10.3125Z" fill="#888B96"/>
<path d="M14.0938 10.3125C14.6633 10.3125 15.125 9.85079 15.125 9.28125C15.125 8.71171 14.6633 8.25 14.0938 8.25C13.5242 8.25 13.0625 8.71171 13.0625 9.28125C13.0625 9.85079 13.5242 10.3125 14.0938 10.3125Z" fill="#888B96"/>
<path fill-rule="evenodd" clip-rule="evenodd" d="M7.07979 12.4679C7.40818 12.2773 7.8289 12.389 8.01951 12.7174C8.3225 13.2394 8.75728 13.6726 9.28033 13.9738C9.80338 14.275 10.3964 14.4335 10.9999 14.4335C11.6035 14.4335 12.1965 14.275 12.7195 13.9738C13.2426 13.6726 13.6773 13.2394 13.9803 12.7174C14.1709 12.389 14.5917 12.2773 14.92 12.4679C15.2484 12.6585 15.3601 13.0792 15.1695 13.4076C14.7456 14.1379 14.1374 14.744 13.4056 15.1654C12.6739 15.5867 11.8443 15.8085 10.9999 15.8085C10.1555 15.8085 9.32596 15.5867 8.59421 15.1654C7.86246 14.744 7.25421 14.1379 6.83032 13.4076C6.63971 13.0792 6.7514 12.6585 7.07979 12.4679Z" fill="#888B96"/>
</svg>
