<svg width="28" height="28" viewBox="0 0 28 28" fill="none" xmlns="http://www.w3.org/2000/svg">
<path fill-rule="evenodd" clip-rule="evenodd" d="M14 4.375C8.68426 4.375 4.375 8.68426 4.375 14C4.375 19.3157 8.68426 23.625 14 23.625C19.3157 23.625 23.625 19.3157 23.625 14C23.625 8.68426 19.3157 4.375 14 4.375ZM2.625 14C2.625 7.71776 7.71776 2.625 14 2.625C20.2822 2.625 25.375 7.71776 25.375 14C25.375 20.2822 20.2822 25.375 14 25.375C7.71776 25.375 2.625 20.2822 2.625 14Z" fill="#202124"/>
<path d="M10.0625 13.125C10.7874 13.125 11.375 12.5374 11.375 11.8125C11.375 11.0876 10.7874 10.5 10.0625 10.5C9.33763 10.5 8.75 11.0876 8.75 11.8125C8.75 12.5374 9.33763 13.125 10.0625 13.125Z" fill="#202124"/>
<path d="M17.9375 13.125C18.6624 13.125 19.25 12.5374 19.25 11.8125C19.25 11.0876 18.6624 10.5 17.9375 10.5C17.2126 10.5 16.625 11.0876 16.625 11.8125C16.625 12.5374 17.2126 13.125 17.9375 13.125Z" fill="#202124"/>
<path fill-rule="evenodd" clip-rule="evenodd" d="M9.0106 15.8681C9.42854 15.6255 9.96401 15.7677 10.2066 16.1856C10.5922 16.85 11.1456 17.4014 11.8113 17.7848C12.477 18.1681 13.2317 18.3698 13.9999 18.3698C14.768 18.3698 15.5227 18.1681 16.1884 17.7848C16.8541 17.4014 17.4075 16.85 17.7931 16.1856C18.0357 15.7677 18.5712 15.6255 18.9891 15.8681C19.4071 16.1107 19.5492 16.6462 19.3066 17.0642C18.7671 17.9936 17.993 18.7651 17.0617 19.3013C16.1303 19.8376 15.0745 20.1198 13.9999 20.1198C12.9252 20.1198 11.8694 19.8376 10.938 19.3013C10.0067 18.7651 9.23258 17.9936 8.69309 17.0642C8.4505 16.6462 8.59265 16.1107 9.0106 15.8681Z" fill="#202124"/>
</svg>
