<svg width="29" height="28" viewBox="0 0 29 28" fill="none" xmlns="http://www.w3.org/2000/svg">
<path fill-rule="evenodd" clip-rule="evenodd" d="M14.5 4.375C9.18426 4.375 4.875 8.68426 4.875 14C4.875 19.3157 9.18426 23.625 14.5 23.625C19.8157 23.625 24.125 19.3157 24.125 14C24.125 8.68426 19.8157 4.375 14.5 4.375ZM3.125 14C3.125 7.71776 8.21776 2.625 14.5 2.625C20.7822 2.625 25.875 7.71776 25.875 14C25.875 20.2822 20.7822 25.375 14.5 25.375C8.21776 25.375 3.125 20.2822 3.125 14Z" fill="#202124"/>
<path d="M10.5625 13.125C11.2874 13.125 11.875 12.5374 11.875 11.8125C11.875 11.0876 11.2874 10.5 10.5625 10.5C9.83763 10.5 9.25 11.0876 9.25 11.8125C9.25 12.5374 9.83763 13.125 10.5625 13.125Z" fill="#202124"/>
<path d="M18.4375 13.125C19.1624 13.125 19.75 12.5374 19.75 11.8125C19.75 11.0876 19.1624 10.5 18.4375 10.5C17.7126 10.5 17.125 11.0876 17.125 11.8125C17.125 12.5374 17.7126 13.125 18.4375 13.125Z" fill="#202124"/>
<path fill-rule="evenodd" clip-rule="evenodd" d="M9.51084 15.8683C9.92879 15.6257 10.4643 15.7678 10.7069 16.1858C11.0925 16.8501 11.6458 17.4016 12.3115 17.7849C12.9772 18.1682 13.7319 18.3699 14.5001 18.3699C15.2683 18.3699 16.023 18.1682 16.6887 17.7849C17.3544 17.4016 17.9077 16.8501 18.2933 16.1858C18.5359 15.7678 19.0714 15.6257 19.4893 15.8683C19.9073 16.1109 20.0494 16.6463 19.8069 17.0643C19.2674 17.9937 18.4932 18.7652 17.5619 19.3014C16.6306 19.8377 15.5748 20.1199 14.5001 20.1199C13.4254 20.1199 12.3696 19.8377 11.4383 19.3014C10.507 18.7652 9.73283 17.9937 9.19334 17.0643C8.95075 16.6463 9.0929 16.1109 9.51084 15.8683Z" fill="#202124"/>
</svg>
