<svg width="29" height="28" viewBox="0 0 29 28" fill="none" xmlns="http://www.w3.org/2000/svg">
<path fill-rule="evenodd" clip-rule="evenodd" d="M14.5 4.375C9.18426 4.375 4.875 8.68426 4.875 14C4.875 19.3157 9.18426 23.625 14.5 23.625C19.8157 23.625 24.125 19.3157 24.125 14C24.125 8.68426 19.8157 4.375 14.5 4.375ZM3.125 14C3.125 7.71776 8.21776 2.625 14.5 2.625C20.7822 2.625 25.875 7.71776 25.875 14C25.875 20.2822 20.7822 25.375 14.5 25.375C8.21776 25.375 3.125 20.2822 3.125 14Z" fill="#202124"/>
<path d="M10.5625 13.125C11.2874 13.125 11.875 12.5374 11.875 11.8125C11.875 11.0876 11.2874 10.5 10.5625 10.5C9.83763 10.5 9.25 11.0876 9.25 11.8125C9.25 12.5374 9.83763 13.125 10.5625 13.125Z" fill="#202124"/>
<path d="M18.4375 13.125C19.1624 13.125 19.75 12.5374 19.75 11.8125C19.75 11.0876 19.1624 10.5 18.4375 10.5C17.7126 10.5 17.125 11.0876 17.125 11.8125C17.125 12.5374 17.7126 13.125 18.4375 13.125Z" fill="#202124"/>
<path fill-rule="evenodd" clip-rule="evenodd" d="M9.5106 15.8684C9.92854 15.6258 10.464 15.7679 10.7066 16.1859C11.0922 16.8503 11.6456 17.4017 12.3113 17.785C12.977 18.1683 13.7317 18.3701 14.4999 18.3701C15.268 18.3701 16.0227 18.1683 16.6884 17.785C17.3541 17.4017 17.9075 16.8503 18.2931 16.1859C18.5357 15.7679 19.0712 15.6258 19.4891 15.8684C19.9071 16.111 20.0492 16.6465 19.8066 17.0644C19.2671 17.9938 18.493 18.7653 17.5617 19.3016C16.6303 19.8378 15.5745 20.1201 14.4999 20.1201C13.4252 20.1201 12.3694 19.8378 11.438 19.3016C10.5067 18.7653 9.73258 17.9938 9.19309 17.0644C8.9505 16.6465 9.09265 16.111 9.5106 15.8684Z" fill="#202124"/>
</svg>
