<svg width="20" height="21" viewBox="0 0 20 21" fill="none" xmlns="http://www.w3.org/2000/svg">
<path fill-rule="evenodd" clip-rule="evenodd" d="M10 3.625C6.20304 3.625 3.125 6.70304 3.125 10.5C3.125 14.297 6.20304 17.375 10 17.375C13.797 17.375 16.875 14.297 16.875 10.5C16.875 6.70304 13.797 3.625 10 3.625ZM1.875 10.5C1.875 6.01269 5.51269 2.375 10 2.375C14.4873 2.375 18.125 6.01269 18.125 10.5C18.125 14.9873 14.4873 18.625 10 18.625C5.51269 18.625 1.875 14.9873 1.875 10.5Z" fill="#202124"/>
<path d="M7.1875 9.875C7.70527 9.875 8.125 9.45527 8.125 8.9375C8.125 8.41973 7.70527 8 7.1875 8C6.66973 8 6.25 8.41973 6.25 8.9375C6.25 9.45527 6.66973 9.875 7.1875 9.875Z" fill="#202124"/>
<path d="M12.8125 9.875C13.3303 9.875 13.75 9.45527 13.75 8.9375C13.75 8.41973 13.3303 8 12.8125 8C12.2947 8 11.875 8.41973 11.875 8.9375C11.875 9.45527 12.2947 9.875 12.8125 9.875Z" fill="#202124"/>
<path fill-rule="evenodd" clip-rule="evenodd" d="M6.43635 11.8346C6.73488 11.6613 7.11736 11.7628 7.29064 12.0614C7.56609 12.5359 7.96134 12.9298 8.43684 13.2036C8.91234 13.4774 9.45141 13.6215 10.0001 13.6215C10.5488 13.6215 11.0879 13.4774 11.5634 13.2036C12.0389 12.9298 12.4341 12.5359 12.7096 12.0614C12.8828 11.7628 13.2653 11.6613 13.5639 11.8346C13.8624 12.0078 13.9639 12.3903 13.7906 12.6889C13.4053 13.3527 12.8523 13.9038 12.1871 14.2868C11.5219 14.6699 10.7677 14.8715 10.0001 14.8715C9.23248 14.8715 8.47832 14.6699 7.81309 14.2868C7.14787 13.9038 6.59491 13.3527 6.20956 12.6889C6.03628 12.3903 6.13782 12.0078 6.43635 11.8346Z" fill="#202124"/>
</svg>
