<svg width="20" height="20" viewBox="0 0 20 20" fill="none" xmlns="http://www.w3.org/2000/svg">
<path fill-rule="evenodd" clip-rule="evenodd" d="M10 3.125C6.20304 3.125 3.125 6.20304 3.125 10C3.125 13.797 6.20304 16.875 10 16.875C13.797 16.875 16.875 13.797 16.875 10C16.875 6.20304 13.797 3.125 10 3.125ZM1.875 10C1.875 5.51269 5.51269 1.875 10 1.875C14.4873 1.875 18.125 5.51269 18.125 10C18.125 14.4873 14.4873 18.125 10 18.125C5.51269 18.125 1.875 14.4873 1.875 10Z" fill="#202124"/>
<path d="M7.1875 9.375C7.70527 9.375 8.125 8.95527 8.125 8.4375C8.125 7.91973 7.70527 7.5 7.1875 7.5C6.66973 7.5 6.25 7.91973 6.25 8.4375C6.25 8.95527 6.66973 9.375 7.1875 9.375Z" fill="#202124"/>
<path d="M12.8125 9.375C13.3303 9.375 13.75 8.95527 13.75 8.4375C13.75 7.91973 13.3303 7.5 12.8125 7.5C12.2947 7.5 11.875 7.91973 11.875 8.4375C11.875 8.95527 12.2947 9.375 12.8125 9.375Z" fill="#202124"/>
<path fill-rule="evenodd" clip-rule="evenodd" d="M6.43635 11.3344C6.73488 11.1612 7.11736 11.2627 7.29064 11.5612C7.56609 12.0358 7.96134 12.4297 8.43684 12.7034C8.91234 12.9772 9.45141 13.1214 10.0001 13.1214C10.5488 13.1214 11.0879 12.9772 11.5634 12.7034C12.0389 12.4297 12.4341 12.0358 12.7096 11.5612C12.8828 11.2627 13.2653 11.1612 13.5639 11.3344C13.8624 11.5077 13.9639 11.8902 13.7906 12.1887C13.4053 12.8526 12.8523 13.4037 12.1871 13.7867C11.5219 14.1697 10.7677 14.3714 10.0001 14.3714C9.23248 14.3714 8.47832 14.1697 7.81309 13.7867C7.14787 13.4037 6.59491 12.8526 6.20956 12.1887C6.03628 11.8902 6.13782 11.5077 6.43635 11.3344Z" fill="#202124"/>
</svg>
