<svg width="28" height="28" viewBox="0 0 28 28" fill="none" xmlns="http://www.w3.org/2000/svg">
<path fill-rule="evenodd" clip-rule="evenodd" d="M6 7H3C1.343 7 0 8.343 0 10V18C0 19.657 1.343 21 3 21H6V25C6 25.796 6.316 26.559 6.879 27.121C7.441 27.684 8.204 28 9 28H19C19.796 28 20.559 27.684 21.121 27.121C21.684 26.559 22 25.796 22 25V21H25C26.657 21 28 19.657 28 18V10C28 8.343 26.657 7 25 7H22V3C22 1.343 20.657 0 19 0H9C7.343 0 6 1.343 6 3V7ZM8 25V17H20V25C20 25.265 19.895 25.52 19.707 25.707C19.52 25.895 19.265 26 19 26H9C8.735 26 8.48 25.895 8.293 25.707C8.105 25.52 8 25.265 8 25ZM22 19H25C25.552 19 26 18.552 26 18V10C26 9.448 25.552 9 25 9H3C2.448 9 2 9.448 2 10V18C2 18.552 2.448 19 3 19H6V16C6 15.448 6.448 15 7 15H21C21.552 15 22 15.448 22 16V19ZM22 13H23C23.552 13 24 12.552 24 12C24 11.448 23.552 11 23 11H22C21.448 11 21 11.448 21 12C21 12.552 21.448 13 22 13ZM20 7H8V3C8 2.448 8.448 2 9 2H19C19.552 2 20 2.448 20 3V7Z" fill="#2B77F3"/>
</svg>
