<svg width="24" height="24" viewBox="0 0 24 24" fill="none" xmlns="http://www.w3.org/2000/svg">
<path fill-rule="evenodd" clip-rule="evenodd" d="M12 3.75C7.44365 3.75 3.75 7.44365 3.75 12C3.75 16.5563 7.44365 20.25 12 20.25C16.5563 20.25 20.25 16.5563 20.25 12C20.25 7.44365 16.5563 3.75 12 3.75ZM2.25 12C2.25 6.61522 6.61522 2.25 12 2.25C17.3848 2.25 21.75 6.61522 21.75 12C21.75 17.3848 17.3848 21.75 12 21.75C6.61522 21.75 2.25 17.3848 2.25 12Z" fill="#202124"/>
<path d="M8.625 11.25C9.24632 11.25 9.75 10.7463 9.75 10.125C9.75 9.50368 9.24632 9 8.625 9C8.00368 9 7.5 9.50368 7.5 10.125C7.5 10.7463 8.00368 11.25 8.625 11.25Z" fill="#202124"/>
<path d="M15.375 11.25C15.9963 11.25 16.5 10.7463 16.5 10.125C16.5 9.50368 15.9963 9 15.375 9C14.7537 9 14.25 9.50368 14.25 10.125C14.25 10.7463 14.7537 11.25 15.375 11.25Z" fill="#202124"/>
<path fill-rule="evenodd" clip-rule="evenodd" d="M7.72372 13.6012C8.08196 13.3933 8.54093 13.5151 8.74887 13.8734C9.07941 14.4428 9.55371 14.9155 10.1243 15.244C10.6949 15.5726 11.3418 15.7455 12.0002 15.7455C12.6587 15.7455 13.3055 15.5726 13.8761 15.244C14.4467 14.9155 14.921 14.4428 15.2516 13.8734C15.4595 13.5151 15.9185 13.3933 16.2767 13.6012C16.635 13.8092 16.7568 14.2681 16.5489 14.6264C16.0864 15.4231 15.4229 16.0843 14.6246 16.5439C13.8264 17.0036 12.9214 17.2455 12.0002 17.2455C11.0791 17.2455 10.1741 17.0036 9.37581 16.5439C8.57754 16.0843 7.91399 15.4231 7.45157 14.6264C7.24364 14.2681 7.36548 13.8092 7.72372 13.6012Z" fill="#202124"/>
</svg>
