<svg width="24" height="24" viewBox="0 0 24 24" fill="none" xmlns="http://www.w3.org/2000/svg">
<path fill-rule="evenodd" clip-rule="evenodd" d="M12 3.75C7.44365 3.75 3.75 7.44365 3.75 12C3.75 16.5563 7.44365 20.25 12 20.25C16.5563 20.25 20.25 16.5563 20.25 12C20.25 7.44365 16.5563 3.75 12 3.75ZM2.25 12C2.25 6.61522 6.61522 2.25 12 2.25C17.3848 2.25 21.75 6.61522 21.75 12C21.75 17.3848 17.3848 21.75 12 21.75C6.61522 21.75 2.25 17.3848 2.25 12Z" fill="#202124"/>
<path d="M8.625 11.25C9.24632 11.25 9.75 10.7463 9.75 10.125C9.75 9.50368 9.24632 9 8.625 9C8.00368 9 7.5 9.50368 7.5 10.125C7.5 10.7463 8.00368 11.25 8.625 11.25Z" fill="#202124"/>
<path d="M15.375 11.25C15.9963 11.25 16.5 10.7463 16.5 10.125C16.5 9.50368 15.9963 9 15.375 9C14.7537 9 14.25 9.50368 14.25 10.125C14.25 10.7463 14.7537 11.25 15.375 11.25Z" fill="#202124"/>
<path fill-rule="evenodd" clip-rule="evenodd" d="M7.72323 13.6015C8.08147 13.3935 8.54044 13.5154 8.74838 13.8736C9.07892 14.4431 9.55322 14.9157 10.1238 15.2443C10.6944 15.5728 11.3413 15.7458 11.9997 15.7458C12.6582 15.7458 13.305 15.5728 13.8756 15.2443C14.4462 14.9157 14.9205 14.4431 15.2511 13.8736C15.459 13.5154 15.918 13.3935 16.2762 13.6015C16.6345 13.8094 16.7563 14.2684 16.5484 14.6266C16.086 15.4233 15.4224 16.0845 14.6241 16.5442C13.8259 17.0038 12.9209 17.2458 11.9997 17.2458C11.0786 17.2458 10.1736 17.0038 9.37532 16.5442C8.57705 16.0845 7.9135 15.4233 7.45108 14.6266C7.24315 14.2684 7.36499 13.8094 7.72323 13.6015Z" fill="#202124"/>
</svg>
