<svg width="24" height="24" viewBox="0 0 24 24" fill="none" xmlns="http://www.w3.org/2000/svg">
<path fill-rule="evenodd" clip-rule="evenodd" d="M12 3.75C7.44365 3.75 3.75 7.44365 3.75 12C3.75 16.5563 7.44365 20.25 12 20.25C16.5563 20.25 20.25 16.5563 20.25 12C20.25 7.44365 16.5563 3.75 12 3.75ZM2.25 12C2.25 6.61522 6.61522 2.25 12 2.25C17.3848 2.25 21.75 6.61522 21.75 12C21.75 17.3848 17.3848 21.75 12 21.75C6.61522 21.75 2.25 17.3848 2.25 12Z" fill="#202124"/>
<path d="M8.625 11.25C9.24632 11.25 9.75 10.7463 9.75 10.125C9.75 9.50368 9.24632 9 8.625 9C8.00368 9 7.5 9.50368 7.5 10.125C7.5 10.7463 8.00368 11.25 8.625 11.25Z" fill="#202124"/>
<path d="M15.375 11.25C15.9963 11.25 16.5 10.7463 16.5 10.125C16.5 9.50368 15.9963 9 15.375 9C14.7537 9 14.25 9.50368 14.25 10.125C14.25 10.7463 14.7537 11.25 15.375 11.25Z" fill="#202124"/>
<path fill-rule="evenodd" clip-rule="evenodd" d="M7.72323 13.6012C8.08147 13.3933 8.54044 13.5151 8.74838 13.8734C9.07892 14.4428 9.55322 14.9155 10.1238 15.244C10.6944 15.5726 11.3413 15.7455 11.9997 15.7455C12.6582 15.7455 13.305 15.5726 13.8756 15.244C14.4462 14.9155 14.9205 14.4428 15.2511 13.8734C15.459 13.5151 15.918 13.3933 16.2762 13.6012C16.6345 13.8092 16.7563 14.2681 16.5484 14.6264C16.086 15.4231 15.4224 16.0843 14.6241 16.5439C13.8259 17.0036 12.9209 17.2455 11.9997 17.2455C11.0786 17.2455 10.1736 17.0036 9.37532 16.5439C8.57705 16.0843 7.9135 15.4231 7.45108 14.6264C7.24315 14.2681 7.36499 13.8092 7.72323 13.6012Z" fill="#202124"/>
</svg>
