<svg width="24" height="24" viewBox="0 0 24 24" fill="none" xmlns="http://www.w3.org/2000/svg">
<path fill-rule="evenodd" clip-rule="evenodd" d="M12 3.75C7.44365 3.75 3.75 7.44365 3.75 12C3.75 16.5563 7.44365 20.25 12 20.25C16.5563 20.25 20.25 16.5563 20.25 12C20.25 7.44365 16.5563 3.75 12 3.75ZM2.25 12C2.25 6.61522 6.61522 2.25 12 2.25C17.3848 2.25 21.75 6.61522 21.75 12C21.75 17.3848 17.3848 21.75 12 21.75C6.61522 21.75 2.25 17.3848 2.25 12Z" fill="#202124"/>
<path d="M8.625 11.25C9.24632 11.25 9.75 10.7463 9.75 10.125C9.75 9.50368 9.24632 9 8.625 9C8.00368 9 7.5 9.50368 7.5 10.125C7.5 10.7463 8.00368 11.25 8.625 11.25Z" fill="#202124"/>
<path d="M15.375 11.25C15.9963 11.25 16.5 10.7463 16.5 10.125C16.5 9.50368 15.9963 9 15.375 9C14.7537 9 14.25 9.50368 14.25 10.125C14.25 10.7463 14.7537 11.25 15.375 11.25Z" fill="#202124"/>
<path fill-rule="evenodd" clip-rule="evenodd" d="M7.72323 13.6014C8.08147 13.3934 8.54044 13.5153 8.74838 13.8735C9.07892 14.443 9.55322 14.9156 10.1238 15.2442C10.6944 15.5727 11.3413 15.7456 11.9997 15.7456C12.6582 15.7456 13.305 15.5727 13.8756 15.2442C14.4462 14.9156 14.9205 14.443 15.2511 13.8735C15.459 13.5153 15.918 13.3934 16.2762 13.6014C16.6345 13.8093 16.7563 14.2683 16.5484 14.6265C16.086 15.4232 15.4224 16.0844 14.6241 16.5441C13.8259 17.0037 12.9209 17.2456 11.9997 17.2456C11.0786 17.2456 10.1736 17.0037 9.37532 16.5441C8.57705 16.0844 7.9135 15.4232 7.45108 14.6265C7.24315 14.2683 7.36499 13.8093 7.72323 13.6014Z" fill="#202124"/>
</svg>
