<svg width="24" height="24" viewBox="0 0 24 24" fill="none" xmlns="http://www.w3.org/2000/svg">
<path d="M13.0592 12L19.2842 5.78435C19.4038 5.63862 19.4649 5.45363 19.4557 5.26534C19.4464 5.07705 19.3675 4.89893 19.2342 4.76563C19.1009 4.63233 18.9227 4.55338 18.7345 4.54413C18.5462 4.53488 18.3612 4.596 18.2155 4.7156L11.9998 10.9406L5.7842 4.7156C5.63848 4.596 5.45348 4.53488 5.26519 4.54413C5.0769 4.55338 4.89878 4.63233 4.76548 4.76563C4.63218 4.89893 4.55323 5.07705 4.54398 5.26534C4.53473 5.45363 4.59585 5.63862 4.71545 5.78435L10.9404 12L4.71545 18.2156C4.57461 18.3578 4.49561 18.5498 4.49561 18.75C4.49561 18.9501 4.57461 19.1422 4.71545 19.2843C4.8588 19.423 5.05041 19.5004 5.24982 19.5004C5.44924 19.5004 5.64084 19.423 5.7842 19.2843L11.9998 13.0593L18.2155 19.2843C18.3588 19.423 18.5504 19.5004 18.7498 19.5004C18.9492 19.5004 19.1408 19.423 19.2842 19.2843C19.425 19.1422 19.504 18.9501 19.504 18.75C19.504 18.5498 19.425 18.3578 19.2842 18.2156L13.0592 12Z" fill="black"/>
</svg>
