<svg width="24" height="24" viewBox="0 0 24 24" fill="none" xmlns="http://www.w3.org/2000/svg">
<path d="M13.0592 12.0002L19.2842 5.78459C19.4038 5.63887 19.4649 5.45387 19.4557 5.26558C19.4464 5.07729 19.3675 4.89917 19.2342 4.76587C19.1009 4.63257 18.9227 4.55362 18.7345 4.54437C18.5462 4.53512 18.3612 4.59624 18.2155 4.71584L11.9998 10.9408L5.7842 4.71584C5.63848 4.59624 5.45348 4.53512 5.26519 4.54437C5.0769 4.55362 4.89878 4.63257 4.76548 4.76587C4.63218 4.89917 4.55323 5.07729 4.54398 5.26558C4.53473 5.45387 4.59585 5.63887 4.71545 5.78459L10.9404 12.0002L4.71545 18.2158C4.57461 18.358 4.49561 18.5501 4.49561 18.7502C4.49561 18.9504 4.57461 19.1424 4.71545 19.2846C4.8588 19.4232 5.05041 19.5007 5.24982 19.5007C5.44924 19.5007 5.64084 19.4232 5.7842 19.2846L11.9998 13.0596L18.2155 19.2846C18.3588 19.4232 18.5504 19.5007 18.7498 19.5007C18.9492 19.5007 19.1408 19.4232 19.2842 19.2846C19.425 19.1424 19.504 18.9504 19.504 18.7502C19.504 18.5501 19.425 18.358 19.2842 18.2158L13.0592 12.0002Z" fill="black"/>
</svg>
